PathFileType	4	(X/Y/Z)	C:/Users/opensim2020/Desktop/walking_exp_matlab/subject06_walking21_straight_04.trc	
DataRate	CameraRate	NumFrames	NumMarkers	Units	OrigDataRate	OrigDataStartFrame	OrigNumFrames	
100.00	100.00	7	44	mm	100.00	2335	104	
Frame#	Time	LFHD			RFHD			LBHD			RBHD			C7			T10			CLAV			STRN			RBAK			LSHO			LUPA			LELB			LFRM			LWRA			LWRB			LFIN			RSHO			RUPA			RELB			RFRM			RWRA			RWRB			RFIN			LASI			RASI			LPSI			RPSI			LTHI			LKNE			LTIB			LANK			LHEE			LTOE			RTHI			RKNE			RTIB			RANK			RHEE			RTOE			*39			*40			*41			*42			*43			
		X1	Y1	Z1	X2	Y2	Z2	X3	Y3	Z3	X4	Y4	Z4	X5	Y5	Z5	X6	Y6	Z6	X7	Y7	Z7	X8	Y8	Z8	X9	Y9	Z9	X10	Y10	Z10	X11	Y11	Z11	X12	Y12	Z12	X13	Y13	Z13	X14	Y14	Z14	X15	Y15	Z15	X16	Y16	Z16	X17	Y17	Z17	X18	Y18	Z18	X19	Y19	Z19	X20	Y20	Z20	X21	Y21	Z21	X22	Y22	Z22	X23	Y23	Z23	X24	Y24	Z24	X25	Y25	Z25	X26	Y26	Z26	X27	Y27	Z27	X28	Y28	Z28	X29	Y29	Z29	X30	Y30	Z30	X31	Y31	Z31	X32	Y32	Z32	X33	Y33	Z33	X34	Y34	Z34	X35	Y35	Z35	X36	Y36	Z36	X37	Y37	Z37	X38	Y38	Z38	X39	Y39	Z39	X40	Y40	Z40	X41	Y41	Z41	X42	Y42	Z42	X43	Y43	Z43	X44	Y44	Z44	

53	0.520	1509.75891	348.11258	1636.78699	1379.21436	357.21021	1618.63257	1521.03967	480.95044	1582.28064	1393.31372	488.48120	1569.92737	1470.45105	485.79703	1422.10156	1462.12073	526.20337	1093.44897	1465.34753	373.71735	1344.90723	1477.36218	337.93924	1168.48462	1400.04956	564.03198	1250.67651	1628.48596	424.86371	1380.70276	1713.05469	394.98029	1187.53418	1735.10620	368.22052	1080.05750	1750.59778	253.77075	987.46967	1697.03760	134.63109	957.27942	1735.62537	166.49135	907.38965	1733.41504	77.93852	891.78632	1305.77319	431.81125	1372.83557	1225.32410	520.29510	1192.31946	1206.93323	544.19873	1073.23535	1182.73303	571.05249	956.90015	1197.90063	559.78265	802.41193	1166.62524	615.34326	826.63538	1158.21606	610.51294	741.93805	1581.45325	365.25641	928.73584	1360.48730	340.95407	937.99359	1532.09924	518.49243	960.23108	1366.00720	493.93478	960.71545	1627.03125	491.39713	627.99854	1603.49915	537.03967	468.20621	1595.09021	696.82935	261.81558	1550.64282	791.53473	117.34833	1508.45032	836.37396	124.38260	1536.31018	672.35614	37.92457	1293.43384	314.56635	615.71661	1329.34607	263.99411	503.87967	1340.34656	214.83070	247.26190	1389.15833	155.33130	70.84711	1437.32739	182.11093	38.33367	1391.85803	-0.40801	83.41611	1455.00732	452.30835	1671.43054												 
54	0.530	1509.12463	333.01736	1636.89758	1378.51172	342.00589	1618.70557	1520.32129	465.93564	1582.47449	1392.52112	473.35376	1570.04932	1469.65430	470.66827	1421.92285	1461.73730	509.47495	1093.14001	1464.56494	358.22809	1345.18909	1476.64136	321.55923	1168.99829	1399.59607	548.08472	1250.28967	1627.56250	409.71472	1380.75232	1712.03259	380.37625	1187.69507	1734.07434	354.07520	1080.24695	1749.27014	239.25929	988.61041	1695.91064	119.87569	959.72253	1734.32336	150.86681	909.19708	1731.76514	62.23045	895.11206	1305.01892	416.44531	1372.96594	1224.63916	504.21478	1192.06934	1206.38184	527.95532	1072.99744	1181.84583	555.55841	956.92126	1197.19739	544.89130	802.21173	1165.68213	600.35498	826.90082	1157.32654	596.25299	742.25073	1580.75024	347.57443	928.64471	1359.65381	323.39999	939.17975	1531.95422	500.67932	960.04236	1365.80884	476.49112	961.02625	1627.00000	473.87262	627.36975	1603.98706	519.30090	467.58209	1595.97827	685.23309	266.14804	1552.62939	785.22729	124.85724	1510.92871	829.40924	134.29385	1536.47644	671.36572	37.83250	1294.96130	295.43085	617.63611	1330.91394	245.55692	505.95734	1341.54272	204.08365	245.53345	1391.48315	151.41034	67.77930	1439.65601	179.23042	37.98051	1393.48694	-4.45250	73.87124	1454.30322	437.11096	1671.59827												 
55	0.540	1508.52747	317.95673	1637.44104	1377.83313	326.65393	1619.20093	1519.58032	450.91553	1583.05933	1391.69885	458.06403	1570.56885	1468.73499	455.78571	1422.01660	1461.13049	492.21109	1093.02087	1463.71179	342.82645	1345.92896	1475.73071	304.75885	1170.01111	1398.91943	532.07837	1249.94934	1626.57166	394.81992	1381.18201	1710.82263	365.81000	1188.07275	1732.93811	340.09927	1080.55823	1748.05029	225.13554	989.30835	1694.91943	105.73433	961.34698	1732.37866	136.33899	909.90479	1730.60913	47.27710	897.46509	1304.11487	401.00729	1373.50085	1223.78503	487.90448	1192.10071	1205.74463	511.24368	1072.97742	1181.44690	538.83362	956.93561	1196.36206	529.25024	802.23053	1164.90039	584.41156	827.15521	1156.39478	580.86914	742.53705	1579.98914	329.48138	928.88098	1358.79651	305.68823	940.38055	1531.77881	482.59625	960.38068	1365.09351	459.00577	962.00665	1626.93506	455.58905	626.75293	1604.29919	500.15500	466.74567	1597.31860	672.95502	271.14459	1554.77502	777.45038	133.17805	1513.21436	820.83582	145.16295	1536.58765	670.38586	37.69546	1297.20972	276.68213	619.76282	1334.03076	227.89648	508.28598	1344.06250	193.92326	245.01811	1391.91504	146.04845	68.49881	1440.23303	175.40845	41.20058	1392.79248	-10.69230	62.87481	1453.46680	421.94330	1672.10425												 
56	0.550	1507.85559	302.83838	1638.88367	1377.04968	311.33154	1620.54883	1518.83704	435.87457	1584.40784	1390.78625	442.73950	1571.78613	1467.62671	440.86319	1422.94446	1460.95728	474.97296	1093.35669	1462.77039	327.25247	1347.51855	1474.82874	288.54333	1171.63025	1398.05481	516.17773	1249.85229	1625.73816	380.25067	1382.11169	1709.53149	351.36441	1188.64685	1731.59705	326.32132	1081.07263	1746.90283	211.47453	989.52380	1694.11694	92.11536	962.02386	1731.03479	122.71837	910.14655	1729.52722	33.42065	898.39905	1303.06030	385.52005	1374.66919	1222.81226	471.26721	1192.41199	1204.94263	494.15030	1073.33606	1180.42041	522.08063	957.35938	1195.59717	512.69373	802.52289	1164.05737	567.73950	827.69861	1155.44385	564.50824	743.13879	1578.84521	311.81570	929.12280	1358.09949	288.04584	941.94623	1531.88660	464.32111	961.19312	1364.55151	441.45963	964.25104	1626.63867	436.34695	626.10999	1604.35168	479.46429	465.74289	1597.40381	658.37347	276.13004	1557.02112	767.92877	142.38942	1515.41870	809.94366	157.10452	1536.73962	669.46545	37.61853	1298.39392	259.32974	622.34747	1335.63049	211.26262	511.22223	1341.79016	180.40947	247.26587	1389.97668	139.20245	69.93412	1437.94312	171.73932	43.27397	1392.19934	-15.57444	57.03472	1452.62903	406.82275	1673.38354												 
57	0.560	1507.14795	287.90552	1640.98425	1376.39429	296.06631	1622.64917	1517.91809	420.89230	1586.52588	1389.90027	427.48340	1573.90308	1466.51526	425.73895	1424.73291	1461.17358	458.10187	1094.33813	1461.87390	312.03448	1349.65601	1473.84192	272.38080	1173.88538	1396.98132	500.40256	1250.51501	1625.12097	365.69891	1383.72021	1708.19116	337.25049	1189.59814	1729.94727	312.84314	1081.78418	1745.52991	198.62057	989.56384	1693.51770	79.19357	961.89166	1729.71533	110.06898	909.63452	1728.49207	20.87301	898.01080	1301.89783	370.04724	1376.38428	1221.71753	454.27069	1193.29309	1204.07092	476.45520	1074.09778	1179.61365	504.33923	958.05847	1194.77942	495.24197	803.14777	1163.17224	550.14795	828.53217	1154.42566	547.12677	744.04736	1577.75330	292.52466	930.91022	1357.55127	270.48944	944.09393	1532.54602	446.02228	962.49011	1364.89331	424.23108	967.44666	1626.26514	416.38321	625.78333	1604.66357	456.92218	464.80109	1598.04944	642.59454	282.27078	1558.75476	756.31586	152.67726	1516.91443	796.25854	169.93652	1537.35242	668.60352	38.02656	1298.70471	243.15578	625.65179	1334.67908	195.57423	514.28082	1339.16907	166.91454	250.60963	1388.73767	134.98637	69.37411	1436.40137	169.08916	44.73580	1390.52661	-18.93809	52.39368	1451.72534	391.81464	1675.60620												 
58	0.570	1506.54138	272.93771	1643.17285	1375.83167	280.67432	1625.02795	1516.88672	405.90878	1589.10681	1388.89624	412.25665	1576.61865	1465.60034	410.32562	1427.08398	1461.38599	441.56009	1096.01343	1460.96191	296.93314	1352.16431	1472.96033	256.13303	1176.59949	1395.48853	484.40973	1252.06372	1624.54907	350.80746	1385.92749	1706.73010	323.25031	1191.09766	1728.05933	299.55576	1082.91992	1743.92480	186.57764	989.43030	1693.11926	66.91743	961.01385	1728.49890	98.52787	908.57349	1727.98010	9.35282	896.48163	1300.83801	354.48465	1378.54199	1220.61719	436.99301	1194.63611	1203.21069	458.39481	1075.25024	1178.97375	485.65604	959.17999	1194.12903	476.78177	804.36694	1162.12219	531.53925	829.78094	1153.42883	528.66241	745.25153	1576.46912	274.43118	932.69855	1356.98853	253.04065	947.24744	1533.56982	427.98523	963.83411	1365.99365	407.14636	970.71246	1625.65039	395.45401	625.50311	1605.53210	432.67615	463.74698	1598.77612	624.63666	288.87222	1560.45557	742.15363	163.10706	1517.71606	779.77136	183.10318	1537.15161	668.12164	38.15408	1297.95630	227.74339	629.14197	1333.29041	180.17140	517.30371	1337.57703	156.36191	252.89059	1387.76794	133.37067	70.10616	1435.22144	168.06030	45.63858	1389.53979	-20.23263	47.52979	1450.94446	376.50580	1678.17883												 
59	0.580	1506.01062	257.90521	1645.16882	1375.31165	265.31885	1627.31311	1516.02356	391.17960	1591.76892	1387.83264	397.05377	1579.50842	1464.57971	395.08093	1429.33398	1461.50842	425.26382	1098.04077	1460.14124	281.89389	1354.65637	1472.11719	240.12608	1179.38269	1393.84729	468.27914	1254.08020	1623.56885	335.92188	1388.22717	1705.10730	309.33557	1192.97998	1725.73230	286.46014	1084.51196	1742.43176	174.99323	989.21368	1692.73914	55.32388	959.40021	1727.19861	87.95872	906.97070	1727.69250	-1.03404	893.74634	1299.96240	338.88016	1380.95068	1219.47888	419.48203	1196.31409	1202.37317	440.12640	1076.83447	1178.02087	466.64447	960.68280	1193.29248	457.30640	805.84222	1161.05774	511.95438	831.00568	1152.38135	508.98560	746.46576	1575.02673	256.63397	934.84650	1356.69800	235.90799	950.96033	1534.71570	410.35181	965.26099	1367.40161	390.51505	974.32062	1625.61584	374.23627	625.10699	1606.88525	407.50598	462.85446	1599.21387	603.87671	294.78461	1562.31531	725.50140	173.02925	1519.08618	760.98926	196.12979	1537.58618	664.20123	40.92891	1296.51013	212.44693	632.47168	1332.06689	165.71895	519.63068	1335.50476	149.53072	253.38130	1387.60181	131.98506	70.40244	1434.61401	167.19084	46.27153	1389.43066	-21.62922	45.01689	1450.16614	361.07559	1680.79175												 
